<svg viewBox="0 0 32 32" xmlns="http://www.w3.org/2000/svg"><g data-name="7. Id Card"><path d="M29 9h-5a1 1 0 0 0 0 2h5a1 1 0 0 1 1 1v16a1 1 0 0 1-1 1H3a1 1 0 0 1-1-1V12a1 1 0 0 1 1-1h8a2 2 0 0 0 2 2h6a2 2 0 0 0 2-2V3a2 2 0 0 0-2-2h-6a2 2 0 0 0-2 2v6H3a3 3 0 0 0-3 3v16a3 3 0 0 0 3 3h26a3 3 0 0 0 3-3V12a3 3 0 0 0-3-3ZM13 3h6v8h-6Z" fill="#75e5bd" class="fill-04009a"></path><path d="M4 26a1 1 0 0 0 1 1h8a1 1 0 0 0 1-1 5 5 0 0 0-2.207-4.145 4 4 0 1 0-5.586 0A5 5 0 0 0 4 26Zm3-7a2 2 0 1 1 2 2 2 2 0 0 1-2-2Zm2 4a3.006 3.006 0 0 1 2.829 2H6.171A3.006 3.006 0 0 1 9 23Z" fill="#e9e5fb" class="fill-04009a"></path><path d="M25 25h-6a1 1 0 0 1 0-2h6a1 1 0 0 1 0 2ZM27 21h-8a1 1 0 0 1 0-2h8a1 1 0 0 1 0 2ZM27 17h-8a1 1 0 0 1 0-2h8a1 1 0 0 1 0 2ZM16.02 9a1 1 0 0 1-.01-2h.01a1 1 0 0 1 0 2Z" fill="#fffafa" class="fill-77acf1"></path></g></svg>