<svg viewBox="0 0 512 512" xmlns="http://www.w3.org/2000/svg"><path d="M471.93 354.79a6.499 6.499 0 0 0-7.67 5.065 25.08 25.08 0 1 1-24.568-30.138 6.5 6.5 0 0 0 0-13 38.078 38.078 0 1 0 37.303 45.744 6.5 6.5 0 0 0-5.065-7.671Z" fill="#ffffff" class="fill-000000"></path><path d="m463.203 325.217-23.018 25.878-6.141-6.45a6.5 6.5 0 1 0-9.416 8.963l11.012 11.567a6.503 6.503 0 0 0 4.708 2.018h.11a6.499 6.499 0 0 0 4.746-2.18l27.712-31.155a6.5 6.5 0 1 0-9.713-8.64ZM471.93 454.435a6.497 6.497 0 0 0-7.67 5.066 25.08 25.08 0 1 1-24.568-30.139 6.5 6.5 0 0 0 0-13 38.078 38.078 0 1 0 37.303 45.744 6.5 6.5 0 0 0-5.065-7.67Z" fill="#ffffff" class="fill-000000"></path><path d="M434.044 444.29a6.5 6.5 0 1 0-9.416 8.964l11.012 11.566a6.502 6.502 0 0 0 4.708 2.018h.11a6.498 6.498 0 0 0 4.746-2.18l27.712-31.154a6.5 6.5 0 1 0-9.713-8.641l-23.017 25.878ZM489.317 196.892A102.762 102.762 0 0 0 386.56 93.354l-.286.001h-.084a30.515 30.515 0 0 1-27.605-17.578 113.113 113.113 0 0 0-205.171 0 30.514 30.514 0 0 1-27.604 17.578h-.371A102.762 102.762 0 0 0 22.683 196.891c.417 56.234 47.055 101.982 103.965 101.982a6.5 6.5 0 0 0 0-13c-49.795 0-90.601-39.96-90.965-89.077a89.76 89.76 0 0 1 89.856-90.443l.152.001h.12a43.555 43.555 0 0 0 39.392-25.097 100.112 100.112 0 0 1 181.594 0 43.544 43.544 0 0 0 39.375 25.097h.388a89.76 89.76 0 0 1 89.757 90.442c-.364 49.117-41.17 89.077-90.966 89.077a6.5 6.5 0 0 0 0 13c56.91 0 103.549-45.748 103.966-101.982Z" fill="#ffffff" class="fill-000000"></path><path d="M126.578 126.566a69.549 69.549 0 0 0-69.547 70.08 6.5 6.5 0 0 0 6.5 6.452h.048a6.5 6.5 0 0 0 6.452-6.548 56.548 56.548 0 0 1 56.53-56.984l.374.001h.017a6.5 6.5 0 0 0 .016-13ZM351.238 422.453h-191.54a30.323 30.323 0 0 0 0 60.646h191.54a30.323 30.323 0 0 0 0-60.646Zm-154.856 36.323h-23.58a6 6 0 0 1 0-12h23.58a6 6 0 0 1 0 12Zm47.25 0h-23.578a6 6 0 0 1 0-12h23.579a6 6 0 0 1 0 12Zm47.252 0h-23.58a6 6 0 0 1 0-12h23.58a6 6 0 0 1 0 12Zm47.25 0h-23.578a6 6 0 0 1 0-12h23.578a6 6 0 0 1 0 12ZM351.238 328.832h-191.54a30.323 30.323 0 0 0-30.322 30.323 30.323 30.323 0 0 0 30.322 30.323h191.54a30.323 30.323 0 0 0 30.323-30.323 30.323 30.323 0 0 0-30.323-30.323Zm-154.856 36.323h-23.58a6 6 0 1 1 0-12h23.58a6 6 0 1 1 0 12Zm47.25 0h-23.578a6 6 0 1 1 0-12h23.579a6 6 0 0 1 0 12Zm47.252 0h-23.58a6 6 0 1 1 0-12h23.58a6 6 0 0 1 0 12Zm47.25 0h-23.578a6 6 0 0 1 0-12h23.578a6 6 0 0 1 0 12ZM256 98.3a52.153 52.153 0 0 0-52.094 52.093v1.89a3.877 3.877 0 0 1-3.873 3.873h-8.897a22.317 22.317 0 0 0-22.292 22.292v96.635a22.317 22.317 0 0 0 22.292 22.291h129.728a22.317 22.317 0 0 0 22.292-22.29v-96.636a22.317 22.317 0 0 0-22.292-22.292h-12.77v-5.762A52.153 52.153 0 0 0 256 98.3Zm11.723 132.692a8.516 8.516 0 0 0-3.313 6.683v10.472a8.41 8.41 0 1 1-16.82 0v-10.465a8.23 8.23 0 0 0-3.136-6.553 18.992 18.992 0 1 1 23.269-.137Zm8.618-74.836h-37.845a2.84 2.84 0 0 1-2.837-2.837v-1.64a20.34 20.34 0 0 1 40.682 0Z" fill="#e9e5fb" class="fill-000000"></path></svg>